<svg width="35" height="56" viewBox="0 0 35 56" fill="none" xmlns="http://www.w3.org/2000/svg">
<path d="M24.7 12.6V12.5995C24.7036 9.23481 23.5309 6.38802 21.1728 4.02996C18.8148 1.67188 15.967 0.498206 12.6003 0.500002C9.23315 0.501799 6.38605 1.67565 4.02982 4.03009C1.6738 6.38431 0.5 9.23116 0.5 12.6V38.5C0.5 43.2218 2.15143 47.2243 5.46355 50.5364C8.77568 53.8486 12.7782 55.5 17.5 55.5C22.2218 55.5 26.2243 53.8486 29.5364 50.5364C32.8486 47.2243 34.5 43.2218 34.5 38.5V11.7H29.9V38.5V38.5141L29.8998 38.5141C29.803 41.9532 28.5632 44.887 26.1853 47.2882C23.8042 49.6926 20.8995 50.8999 17.5003 50.9C17.5002 50.9 17.5001 50.9 17.5 50.9V50.4C14.1867 50.4019 11.3633 49.2473 9.03 46.9364C6.69667 44.6255 5.55333 41.8133 5.6 38.5L24.7 12.6ZM24.7 12.6V37.1C24.7 39.1165 24.0043 40.8086 22.6064 42.2065C21.2086 43.6043 19.5165 44.3 17.5 44.3C15.4835 44.3 13.7914 43.6043 12.3936 42.2065C10.9957 40.8086 10.3 39.1165 10.3 37.1V11.7H14.9V37.1C14.9 37.8277 15.1436 38.4607 15.6428 38.96C16.1422 39.4593 16.7747 39.7022 17.5015 39.7C18.2267 39.6978 18.8581 39.4543 19.3583 38.9588C19.861 38.4608 20.1041 37.8273 20.1 37.0985V12.6H20.1001L20.0999 12.5881C20.0503 10.5059 19.3144 8.72686 17.8931 7.27966C16.4665 5.82698 14.6909 5.1 12.6 5.1C10.5092 5.1 8.72413 5.82677 7.2762 7.27669C5.82867 8.72622 5.10199 10.5109 5.1 12.5995V12.6V38.4965L24.7 12.6Z" fill="#4C4C4C" stroke="#F2F2F2"/>
</svg>
